<?xml version="1.0" encoding="UTF-8"?>
<svg version="1.1" xmlns="http://www.w3.org/2000/svg" width="2000" height="2736">
<path d="M0 0 C5.83913883 0.0001848 11.67827302 -0.00432808 17.51741001 -0.00861289 C30.92034877 -0.0182247 44.32328367 -0.02109493 57.72622548 -0.02166995 C68.10171128 -0.02213212 78.4771956 -0.02420402 88.85268092 -0.02737057 C91.85561351 -0.02826836 94.8585461 -0.02915818 97.86147869 -0.03004545 C98.6083876 -0.0302665 99.35529651 -0.03048755 100.12483903 -0.03071529 C121.10665789 -0.0368609 142.08847624 -0.0408168 163.07029605 -0.04037201 C163.85957679 -0.04035644 164.64885752 -0.04034086 165.46205586 -0.04032481 C169.46098633 -0.04024172 173.4599168 -0.04014268 177.45884727 -0.0400401 C178.25280789 -0.04002015 179.04676852 -0.04000021 179.86478855 -0.03997966 C181.47037566 -0.03993922 183.07596278 -0.03989742 184.68154989 -0.03985427 C209.57904209 -0.03924354 234.4765206 -0.04671411 259.37400889 -0.06042683 C287.46127194 -0.07589064 315.548526 -0.08438672 343.63579357 -0.08346361 C346.64941422 -0.083389 349.66303488 -0.08334028 352.67665553 -0.08330929 C353.4184687 -0.08329764 354.16028187 -0.08328598 354.92457423 -0.08327398 C366.71088334 -0.08324358 378.49718029 -0.08954873 390.28348582 -0.09824156 C402.20260365 -0.10684827 414.12170429 -0.1076091 426.04082356 -0.10113224 C432.46044447 -0.09782924 438.88003157 -0.09758978 445.299649 -0.10648549 C492.68188074 -0.16799141 540.05876459 0.92442718 587.35203624 3.95788372 C588.70903849 4.0429157 590.06605386 4.12773859 591.42308116 4.2123698 C698.09261542 10.89180672 804.76420161 25.1471107 966.87516856 70.43108928 C969.10587459 71.167277 971.33843079 71.8976411 973.57127452 72.62731731 C1039.25866412 94.14917171 1102.26483795 122.74654984 1161.03953624 159.14538372 C1162.62499807 160.11751408 1164.2108737 161.08897023 1165.79734874 162.05944622 C1186.42459514 174.73304898 1206.19814056 188.95339401 1225.03953624 204.14538372 C1225.98055186 204.90335247 1226.92156749 205.66132122 1227.89109874 206.44225872 C1230.62088344 208.66070046 1233.3341561 210.89725093 1236.03953624 213.14538372 C1236.54839366 213.56787395 1237.05725108 213.99036418 1237.58152843 214.42565715 C1245.0274059 220.62225671 1252.25526469 227.00457061 1259.35032725 233.59972942 C1260.61098751 234.75325451 1261.88444558 235.89282218 1263.1642921 237.02502239 C1269.85311606 242.95358362 1276.21208086 249.16399799 1282.51780772 255.49328411 C1284.23160857 257.21247041 1285.95072706 258.92620955 1287.67039561 260.63952434 C1293.34160472 266.30730498 1298.84659387 272.03047598 1304.03953624 278.14538372 C1305.49399141 279.75306744 1306.95174519 281.35778086 1308.41453624 282.95788372 C1312.25759922 287.22148389 1315.93276358 291.59090645 1319.53953624 296.05553997 C1321.35957196 298.30499037 1323.19172506 300.54012163 1325.03953624 302.76647747 C1332.54648766 311.84619412 1339.58494139 321.18111766 1346.38035655 330.80358684 C1348.04330383 333.15070137 1349.72369197 335.48451648 1351.40672374 337.81725872 C1366.53835978 358.93081842 1379.693417 381.30962537 1392.03953624 404.14538372 C1392.61413585 405.20805461 1393.18873546 406.27072551 1393.78074718 407.36559856 C1415.52112499 447.8453818 1432.25677231 490.35836785 1446.03953624 534.14538372 C1446.26276561 534.85396526 1446.48599498 535.5625468 1446.71598887 536.29260051 C1453.94152311 559.3111354 1459.8729484 582.58288073 1465.03953624 606.14538372 C1465.21420421 606.94139995 1465.38887218 607.73741619 1465.56883311 608.55755413 C1477.99878329 665.49590979 1484.69099724 723.46590259 1487.89878917 781.61993206 C1487.99033802 783.2626107 1488.08559765 784.90508817 1488.18516612 786.54730022 C1489.49041953 808.3399568 1489.28530364 830.19757877 1489.28953624 852.02038372 C1489.28997809 853.06389366 1489.29041995 854.1074036 1489.2908752 855.18253505 C1489.29850563 889.59839587 1488.75049241 923.81967352 1486.03953624 958.14538372 C1485.95467967 959.23959636 1485.8698231 960.33380901 1485.78239512 961.46117961 C1482.17319519 1007.68608953 1476.29626404 1053.69900133 1467.03953624 1099.14538372 C1466.87538218 1099.95306194 1466.71122813 1100.76074016 1466.54209971 1101.59289348 C1455.64068255 1155.00539656 1440.9396934 1207.73026017 1420.03953624 1258.14538372 C1419.78534923 1258.75885662 1419.53116221 1259.37232952 1419.26927257 1260.0043925 C1392.15832288 1325.2863751 1356.349443 1385.30418413 1313.03953624 1441.14538372 C1312.31637218 1442.08124309 1312.31637218 1442.08124309 1311.57859874 1443.03600872 C1305.77741081 1450.53588703 1299.81082631 1457.86115597 1293.64891124 1465.06725872 C1291.26481532 1467.86204561 1288.96148109 1470.71589416 1286.66453624 1473.58288372 C1282.04311687 1479.26822696 1277.06000026 1484.58134397 1272.04734874 1489.91882122 C1269.73576779 1492.38422271 1267.4884446 1494.89078605 1265.28953624 1497.45788372 C1262.11512978 1501.14302389 1258.67626017 1504.52394346 1255.21531749 1507.93835247 C1253.2945624 1509.8866947 1251.49910819 1511.8753758 1249.72703624 1513.95788372 C1243.08271643 1521.68383698 1235.72154929 1528.83832913 1227.96531749 1535.43835247 C1225.72817013 1537.42138166 1223.63898972 1539.51731758 1221.53953624 1541.64538372 C1218.18696845 1545.0380677 1214.74477942 1548.23639056 1211.12547374 1551.34069622 C1208.78928123 1553.36189647 1206.50988773 1555.4391721 1204.22703624 1557.52038372 C1199.98864781 1561.3413551 1195.6407452 1564.98785703 1191.20359874 1568.57507122 C1188.82668813 1570.49718832 1186.47277681 1572.4450364 1184.12547374 1574.40319622 C1175.2880544 1581.76463737 1166.3207594 1588.87484853 1157.04344249 1595.67419231 C1155.08749771 1597.11017223 1153.14144551 1598.55879361 1151.19578624 1600.00866497 C1128.11145472 1617.0730752 1103.91142113 1632.82570179 1079.03953624 1647.14538372 C1078.04115733 1647.72159465 1077.04277843 1648.29780559 1076.01414561 1648.89147747 C999.62083651 1692.78219504 916.27725071 1725.11546699 831.03953624 1747.14538372 C829.86409251 1747.45028728 829.86409251 1747.45028728 828.66490245 1747.76135051 C747.62025802 1768.73684416 664.4781752 1780.43615026 580.78953624 1782.70788372 C579.66282512 1782.73865505 579.66282512 1782.73865505 578.51335216 1782.77004802 C520.34870034 1784.33229318 480.72781874 1773.90202782 435.03953624 1737.14538372 C434.40837901 1736.64039348 433.77722178 1736.13540325 433.12693858 1735.61511028 C424.98798614 1729.09833387 416.9749423 1722.46656544 409.174546 1715.54626262 C405.29370238 1712.12858295 401.26645987 1709.12426064 397.03953624 1706.14538372 C395.32844935 1704.52435403 393.66700318 1702.85034908 392.03953624 1701.14538372 C387.18497459 1696.18793155 382.2718687 1691.40795788 377.00437999 1686.89147747 C374.30575263 1684.49329371 371.79639049 1681.92926848 369.28953624 1679.33288372 C367.44026962 1677.53498562 365.56303298 1675.87464043 363.60228038 1674.20373333 C358.0888592 1669.39076709 352.95189977 1664.20218759 347.78562999 1659.02428997 C346.71538656 1657.95472208 345.6449949 1656.88530251 344.57446361 1655.81602275 C342.34317711 1653.58620148 340.11368567 1651.35460532 337.8854835 1649.12170208 C335.04921736 1646.27973939 332.20848393 1643.4422913 329.36637855 1640.60616958 C327.15877291 1638.40220145 324.95358403 1636.19582752 322.7490871 1633.98875034 C321.70337645 1632.94237922 320.65694088 1631.89673198 319.60972476 1630.85186756 C314.37416276 1625.62548896 309.21399572 1620.37657726 304.41479564 1614.74082744 C302.56450824 1612.5943019 300.57273663 1610.61789156 298.53953624 1608.64538372 C295.08904718 1605.24168095 291.8731623 1601.72099382 288.71922374 1598.04382122 C287.05749048 1596.16567618 285.32828099 1594.40232856 283.53953624 1592.64538372 C279.82735061 1588.9826939 276.41205428 1585.12088836 273.03953624 1581.14538372 C272.32668468 1580.32167278 271.61383311 1579.49796184 270.87937999 1578.64928997 C259.0630518 1564.68453847 248.07496776 1547.72085357 249.16453624 1528.70788372 C251.58735251 1509.13041426 263.68546221 1493.67930214 276.70750499 1479.65710247 C278.67386247 1477.53923335 280.58808237 1475.39438162 282.47703624 1473.20788372 C286.74947812 1468.29507583 291.17253784 1463.52066533 295.58250499 1458.7318095 C297.04146968 1457.14327857 298.494494 1455.54951876 299.94578624 1453.95397747 C304.30994055 1449.16114769 308.69630255 1444.42347476 313.32992625 1439.88743389 C315.0186164 1438.16670051 316.58049739 1436.38520332 318.143296 1434.54992473 C322.42783708 1429.6275792 327.01108051 1425.03012455 331.62937999 1420.42272747 C332.53273585 1419.51841487 333.43609172 1418.61410228 334.366822 1417.68238628 C336.26749691 1415.78103428 338.16913232 1413.88070819 340.07249522 1411.98205364 C342.49072015 1409.56952511 344.90442581 1407.1525329 347.31681037 1404.73416603 C349.64772025 1402.39873797 351.9824758 1400.06716195 354.31687999 1397.73522747 C355.17232905 1396.87775417 356.02777812 1396.02028087 356.90914989 1395.13682353 C361.28290583 1390.77992857 365.71966578 1386.56673196 370.41162181 1382.55311382 C372.38901224 1380.84317626 374.2242207 1379.02553195 376.03953624 1377.14538372 C379.21069654 1373.93103641 382.49536376 1370.92787409 385.91844249 1367.98522747 C388.26444682 1365.95029553 390.55690074 1363.86247405 392.85203624 1361.77038372 C397.12615093 1357.91198838 401.53398538 1354.26312186 406.01219249 1350.64538372 C408.82005922 1348.32662925 411.55969894 1345.95015473 414.29148936 1343.54333293 C422.18242654 1336.60070703 430.35878662 1330.14906602 438.77098155 1323.85192668 C441.0985133 1322.10101763 443.40982243 1320.33027815 445.71922374 1318.55553997 C454.80137554 1311.60896327 464.05020992 1304.96357387 473.53953624 1298.58288372 C474.50576915 1297.92828166 475.47200206 1297.27367961 476.46751475 1296.59924114 C498.08592538 1282.2393779 520.3319985 1278.25379794 545.85203624 1277.64538372 C594.17517081 1276.48828006 641.18674243 1267.25291221 684.03953624 1244.14538372 C684.75657725 1243.76414348 685.47361827 1243.38290325 686.2123878 1242.99011028 C758.77166834 1204.29390609 807.8790463 1140.7505899 832.01219249 1062.59411418 C843.64847074 1023.531836 849.55751103 982.76303099 852.03953624 942.14538372 C852.0819041 941.50534404 852.12427196 940.86530437 852.16792369 940.20586956 C853.26168887 923.40783908 853.24060597 906.59589956 853.22703624 889.77038372 C853.22676936 889.02933517 853.22650249 888.28828662 853.22622752 887.52478206 C853.21560816 864.02044223 853.01829236 840.58061867 851.03953624 817.14538372 C850.97637218 816.38787822 850.91320811 815.63037273 850.84812999 814.84991252 C842.98770269 721.76020137 818.10966722 622.52238708 745.21922374 558.54772747 C741.88343021 555.75266759 738.43416589 553.12720959 734.92967296 550.54821575 C732.87359752 549.02222641 730.84953611 547.45864157 728.82469249 545.89147747 C684.15928906 511.69437701 630.6311385 490.36283776 576.03953624 478.14538372 C575.03680675 477.91657512 574.03407725 477.68776653 573.00096202 477.45202434 C559.88416741 474.49820102 546.65976992 472.38593549 533.35203624 470.52038372 C532.67109904 470.42183086 531.99016185 470.323278 531.28859019 470.2217387 C501.37015193 465.93936367 471.21904138 464.66891788 441.03485632 464.7424072 C436.77115809 464.75024884 432.50747456 464.74289418 428.24377513 464.73824871 C421.1070556 464.732865 413.97043069 464.73978952 406.83372569 464.75427043 C398.67414639 464.77063938 390.51479169 464.76524743 382.35521764 464.74879122 C375.23641594 464.7350295 368.11768046 464.73332555 360.99886972 464.74110723 C356.79600242 464.74569714 352.59323953 464.74665625 348.39037967 464.73649776 C291.21044359 464.61718607 227.57391353 470.74748429 184.53172374 512.58288372 C178.36704211 519.1127207 173.5882535 526.4478703 169.03953624 534.14538372 C168.69535655 534.72385051 168.35117686 535.30231731 167.99656749 535.8983134 C149.33807829 567.72855216 142.65292569 605.7017964 139.42260963 641.98213565 C139.35780872 642.70765815 139.29300782 643.43318065 139.22624326 644.18068867 C137.8365538 660.10313176 137.61089761 675.95250578 137.65579721 691.92603841 C137.66379579 696.01104024 137.65390794 700.0960126 137.64657196 704.18101043 C137.63607908 711.33035625 137.63643844 718.47963403 137.64428943 725.62898231 C137.65597875 736.3316861 137.65004904 747.03433365 137.64092328 757.73703741 C137.62585424 775.98690548 137.62476781 794.23674975 137.63146091 812.48662174 C137.63817336 830.96195027 137.63827006 849.43726164 137.63039851 867.91258991 C137.62990346 869.0826493 137.6294084 870.2527087 137.62889834 871.45822444 C137.62634145 877.42520224 137.62367384 883.39217998 137.62096381 889.3591577 C137.60157925 932.47506536 137.59631134 975.59096518 137.59828067 1018.70687664 C137.60016252 1061.40473612 137.59494809 1104.10258603 137.58059955 1146.80044353 C137.58015088 1148.14167656 137.57970231 1149.48290958 137.57925384 1150.82414261 C137.57451051 1164.98398027 137.56957382 1179.14381785 137.56454935 1193.30365541 C137.55482163 1220.72814093 137.54602208 1248.15262675 137.53760429 1275.57711271 C137.53717875 1276.96322323 137.53675263 1278.34933374 137.53632593 1279.73544425 C137.51579198 1346.44260547 137.50503428 1413.14976742 137.49612467 1479.85693107 C137.49564187 1483.46601967 137.49515554 1487.07510827 137.49466941 1490.68419687 C137.49272215 1505.14835045 137.4907903 1519.61250402 137.48886702 1534.07665759 C137.48877164 1534.79370941 137.48867626 1535.51076123 137.48857799 1536.2495419 C137.4875176 1544.22251089 137.48646108 1552.19547988 137.48541171 1560.16844887 C137.47681494 1625.43879825 137.46593717 1690.70914714 137.45367916 1755.97949593 C137.45300141 1759.58914562 137.45232721 1763.19879531 137.45165399 1766.80844501 C137.43947464 1832.08890916 137.42538446 1897.36937235 137.4059326 1962.64983478 C137.40531348 1964.72844098 137.40469576 1966.80704719 137.40407839 1968.88565339 C137.39633792 1994.93570866 137.38845534 2020.98576389 137.37999166 2047.03581893 C137.37473734 2063.21082925 137.36959973 2079.38583961 137.36465716 2095.56085002 C137.36445401 2096.22394434 137.36425087 2096.88703866 137.36404156 2097.57022675 C137.35037035 2142.24798164 137.34512346 2186.92573236 137.34435935 2231.60348905 C137.34362401 2273.26967212 137.33700218 2314.93585011 137.32302957 2356.60203094 C137.32104216 2362.54448261 137.31913278 2368.48693431 137.3172729 2374.42938602 C137.31690637 2375.5942304 137.31653985 2376.75907478 137.31616221 2377.95921748 C137.31055707 2396.38626469 137.31169243 2414.8133051 137.31567775 2433.24035247 C137.31946706 2451.36928498 137.31617292 2469.49820474 137.30540781 2487.62713456 C137.29931908 2498.24782948 137.29867007 2508.86849057 137.30619204 2519.48918477 C137.31064991 2526.55503294 137.30779362 2533.62085448 137.2991562 2540.6866987 C137.29447147 2544.68403686 137.29273348 2548.68130788 137.300089 2552.67864356 C137.43004106 2628.99900204 137.43004106 2628.99900204 114.03953624 2655.14538372 C92.12249799 2673.23372339 64.10475786 2676.47170497 36.67292857 2676.40608013 C34.86003554 2676.40910699 33.04714378 2676.41299914 31.23425424 2676.41767269 C26.29197257 2676.42789275 21.34976392 2676.42578625 16.40747643 2676.4214921 C11.06167735 2676.41901387 5.71589536 2676.42805267 0.37010264 2676.43552959 C-10.08846626 2676.44824891 -20.54700945 2676.45007368 -31.00558479 2676.44772933 C-39.51239158 2676.44594266 -48.01919059 2676.44770327 -56.52599645 2676.45195377 C-57.73905986 2676.45254896 -58.95212328 2676.45314415 -60.20194619 2676.45375737 C-62.66672283 2676.45496919 -65.13149946 2676.45618333 -67.59627609 2676.45739975 C-90.68814253 2676.46826494 -113.77999436 2676.46611782 -136.87186162 2676.4600149 C-157.96348194 2676.45484846 -179.05505602 2676.46609583 -200.1466672 2676.48511312 C-221.83783587 2676.50452003 -243.52898272 2676.51274241 -265.22016013 2676.50898987 C-277.38425738 2676.50708192 -289.54831531 2676.50952552 -301.71240544 2676.52370441 C-312.06973813 2676.5356557 -322.42700731 2676.53698134 -332.78434093 2676.52491424 C-338.06088235 2676.51905138 -343.33730781 2676.51785373 -348.6138413 2676.52991664 C-353.4588226 2676.54086348 -358.30359237 2676.53756898 -363.14856414 2676.52365496 C-364.88670125 2676.52103198 -366.62485543 2676.52329754 -368.36297567 2676.53139082 C-395.28103167 2676.64787395 -425.60730335 2673.12105451 -445.81983876 2653.47741497 C-464.51321932 2633.112546 -467.30739419 2603.83289327 -467.21116209 2577.38262409 C-467.21315119 2575.86726766 -467.21601575 2574.35191217 -467.21966098 2572.83655882 C-467.22710949 2568.70120021 -467.22226548 2564.56593689 -467.21528108 2560.43058092 C-467.2098796 2555.90392781 -467.21619258 2551.37728761 -467.22095478 2546.85063586 C-467.22772487 2538.89604594 -467.2270899 2530.94148345 -467.22158769 2522.98689295 C-467.21338762 2511.07807823 -467.21675971 2499.16928569 -467.22235297 2487.26047046 C-467.23154808 2466.96136807 -467.23125531 2446.66227571 -467.22579122 2426.36317241 C-467.22028775 2405.79242488 -467.21912881 2385.22168394 -467.22326589 2364.65093601 C-467.22352423 2363.35141875 -467.22378258 2362.05190149 -467.22404875 2360.71300491 C-467.22524957 2354.75389552 -467.22649769 2348.79478614 -467.22777912 2342.83567677 C-467.23083123 2328.58254123 -467.23316069 2314.32940559 -467.23511004 2300.07626987 C-467.23520385 2299.392629 -467.23529765 2298.70898813 -467.2353943 2298.00463087 C-467.23995088 2264.31220443 -467.23687971 2230.61977915 -467.2330544 2196.92735279 C-467.23288713 2195.45150107 -467.23271986 2193.97564935 -467.23255261 2192.49979764 C-467.2324697 2191.76835311 -467.23238679 2191.03690858 -467.23230136 2190.28329906 C-467.23120826 2180.63682121 -467.23013504 2170.99034337 -467.22911477 2161.34386551 C-467.22903645 2160.60644672 -467.22895813 2159.86902792 -467.22887743 2159.10926309 C-467.22527353 2124.92280442 -467.22613247 2090.73634632 -467.22797568 2056.54988756 C-467.22817528 2052.81924141 -467.22836628 2049.08859525 -467.22855823 2045.3579491 C-467.22913944 2034.11270579 -467.22973332 2022.86746248 -467.23035343 2011.62221918 C-467.23224254 1977.32835551 -467.233443 1943.03449184 -467.23405004 1908.74062812 C-467.23406377 1907.9770191 -467.23407751 1907.21341007 -467.23409166 1906.42666138 C-467.2349692 1856.97044237 -467.23276755 1807.51422402 -467.22835088 1758.05800521 C-467.22824552 1756.87370858 -467.22824552 1756.87370858 -467.22813804 1755.66548676 C-467.22578544 1729.22127477 -467.22327325 1702.7770628 -467.22074478 1676.33285082 C-467.21310895 1596.41863445 -467.2089113 1516.50442043 -467.22097544 1373.84395302 C-467.22350202 1347.44693523 -467.22599915 1321.04991743 -467.22835088 1294.65289962 C-467.22845661 1293.47067445 -467.22845661 1293.47067445 -467.22856448 1292.26456595 C-467.23297885 1242.86448148 -467.23493845 1193.46439747 -467.23405004 1144.06431282 C-467.23403652 1143.30073629 -467.23402301 1142.53715977 -467.23400909 1141.75044456 C-467.23339548 1107.45488202 -467.23211852 1073.15931953 -467.23022903 1038.86375704 C-467.22960998 1027.61371317 -467.2290213 1016.36366931 -467.22844293 1005.11362544 C-467.22825095 1001.38191642 -467.22805624 997.6502074 -467.22785522 993.91849838 C-467.22601961 959.73887981 -467.22547815 925.55926203 -467.22911477 891.37964356 C-467.22923169 890.27615364 -467.22923169 890.27615364 -467.22935096 889.15037099 C-467.23037441 879.52705924 -467.23145973 869.9037475 -467.23255261 860.28043576 C-467.23263544 859.55093978 -467.23271826 858.8214438 -467.2328036 858.06984188 C-467.23297072 856.59809796 -467.23313798 855.12635403 -467.23330539 853.6546101 C-467.23712151 820.01846002 -467.23971485 786.38231135 -467.23511004 752.74616122 C-467.23496998 751.71974404 -467.23496998 751.71974404 -467.23482709 750.67259115 C-467.23276548 735.7341366 -467.23012563 720.79568222 -467.22691948 705.85722788 C-467.22564791 699.89684075 -467.22444694 693.93645361 -467.22326589 687.97606647 C-467.22287527 686.02734481 -467.22287527 686.02734481 -467.22247675 684.03925503 C-467.21854644 663.54620002 -467.22126298 643.05315164 -467.2268039 622.56009724 C-467.23212117 602.36248226 -467.23018906 582.16487837 -467.22077572 561.96726479 C-467.21593975 551.18230839 -467.21413188 540.3973748 -467.22158769 529.61241926 C-467.27615663 446.01192445 -467.27615663 446.01192445 -464.96046376 405.14538372 C-464.92010631 404.4210243 -464.87974886 403.69666488 -464.83816846 402.95035517 C-464.38309381 394.7989871 -463.85575707 386.65888125 -463.21046376 378.52038372 C-463.12809468 377.45412761 -463.0457256 376.38787151 -462.96086049 375.28930461 C-456.09621745 287.29917894 -443.39705226 189.05422753 -376.56593251 104.86803997 C-374.39686234 102.60141042 -372.35123352 100.29645212 -370.33546376 97.89538372 C-358.28991614 84.06317592 -342.42456862 72.85357936 -326.96046376 63.14538372 C-326.3301122 62.74641887 -325.69976064 62.34745403 -325.05030751 61.93639934 C-257.4328037 19.52178331 -172.95750803 7.97259508 -94.83546376 2.45788372 C-93.5498203 2.36647609 -93.5498203 2.36647609 -92.23820424 2.27322185 C-86.14820269 1.84693274 -80.05582886 1.48547412 -73.96046376 1.14538372 C-73.14698562 1.09895272 -72.33350749 1.05252173 -71.49537849 1.00468373 C-47.68815051 -0.28825937 -23.83286595 -0.00471569 0 0 Z " fill="#CF69C7" transform="translate(484.9604637622833,25.854616284370422)"/>
</svg>
